#!OML:ASF F:\twosubjects\two\Thursday\Session 1\justin.ASF
:FULLY-SPECIFIED
:DEGREES
437
root 3.48924 16.869 -7.4844 9.34605 15.1943 -2.23193
lowerback 18.1572 -1.59338 -5.76178
upperback 7.73042 -2.84987 2.52397
thorax -1.4015 -1.56142 6.49376
lowerneck 3.16028 -19.4669 -20.3926
upperneck -18.5928 -25.0418 33.4932
head 1.61804 -13.572 12.0825
rclavicle -8.01102e-014 3.26007e-014
rhumerus -59.0424 -32.2168 -11.043
rradius 28.9745
rwrist 4.91776
rhand -34.62 12.3461
rfingers 7.12502
rthumb -7.77801 -17.4908
lclavicle -8.01102e-014 3.26007e-014
lhumerus -54.7276 10.4652 24.1631
lradius 24.2367
lwrist -36.1487
lhand -22.8732 47.7308
lfingers 7.12502
lthumb 3.56551 77.6807
rfemur -37.867 -13.2245 10.4167
rtibia 47.1027
rfoot -12.608 -12.4716
rtoes -30.0069
lfemur -17.7969 2.88925 -1.27879
ltibia 34.9945
lfoot -20.0263 6.08045
ltoes -27.8794
438
root 3.43942 16.8729 -7.47787 9.70487 14.9632 -1.91136
lowerback 17.8876 -1.71166 -5.87408
upperback 7.70564 -3.01157 2.51995
thorax -1.25619 -1.65015 6.56788
lowerneck 2.9625 -19.4432 -20.3628
upperneck -18.5827 -24.9817 33.1798
head 1.57168 -13.5096 11.9767
rclavicle 5.36719e-014 -2.34566e-014
rhumerus -58.8908 -31.5603 -12.2452
rradius 28.9021
rwrist 4.85881
rhand -35.067 12.2416
rfingers 7.12502
rthumb -8.20946 -17.5789
lclavicle 5.36719e-014 -2.34566e-014
lhumerus -54.8832 10.7292 24.5862
lradius 23.8219
lwrist -36.0241
lhand -23.2975 47.9535
lfingers 7.12502
lthumb 3.15575 77.9099
rfemur -38.4411 -13.4025 10.3697
rtibia 47.3261
rfoot -12.6556 -12.1473
rtoes -29.4709
lfemur -18.1902 2.78757 -1.50888
ltibia 35.2721
lfoot -19.5475 6.3105
ltoes -27.956
439
root 3.39565 16.8801 -7.45571 9.49162 14.3869 -1.53996
lowerback 18.0382 -1.55998 -6.12631
upperback 7.91281 -2.86002 2.47025
thorax -1.12092 -1.59116 6.63449
lowerneck 2.52639 -19.4871 -20.2145
upperneck -18.6257 -24.9603 32.8155
head 1.53206 -13.4538 11.8061
rclavicle -1.45113e-014 3.97569e-016
rhumerus -59.2211 -31.2135 -12.9188
rradius 28.6654
rwrist 5.15617
rhand -35.1696 13.0417
rfingers 7.12502
rthumb -8.3085 -16.7749
lclavicle -1.45113e-014 3.97569e-016
lhumerus -54.7876 11.2534 24.9778
lradius 23.6945
lwrist -36.5369
lhand -23.0967 48.2382
lfingers 7.12502
lthumb 3.34973 78.1917
rfemur -38.2985 -13.0381 10.0547
rtibia 47.4833
rfoot -12.9358 -11.9054
rtoes -28.8182
lfemur -17.8025 2.92946 -1.83951
ltibia 35.6367
lfoot -19.5386 6.59547
ltoes -28.401
440
root 3.34852 16.8732 -7.45038 9.3167 13.8836 -1.31453
lowerback 18.3481 -1.4223 -6.22729
upperback 7.95469 -2.71477 2.43356
thorax -1.25489 -1.51654 6.64264
lowerneck 1.67714 -19.6495 -19.3144
upperneck -18.3066 -25.0665 31.7255
head 1.44534 -13.4147 11.2404
rclavicle 7.55382e-015 -3.77691e-014
rhumerus -59.8463 -30.7679 -13.3581
rradius 28.4119
rwrist 5.74006
rhand -34.6138 14.0725
rfingers 7.12502
rthumb -7.77204 -15.7647
lclavicle 7.55382e-015 -3.77691e-014
lhumerus -54.7932 11.4119 25.3884
lradius 23.6872
lwrist -36.8217
lhand -23.1404 48.2399
lfingers 7.12502
lthumb 3.30747 78.194
rfemur -38.2008 -12.6367 9.95337
rtibia 47.545
rfoot -13.1709 -11.828
rtoes -28.9759
lfemur -17.5607 3.11465 -1.92609
ltibia 35.9368
lfoot -19.6281 6.45888
ltoes -27.8243
441
root 3.30977 16.8533 -7.45376 9.24504 13.5601 -1.4257
lowerback 18.5115 -1.45575 -5.87525
upperback 7.82347 -2.71124 2.49383
thorax -1.50046 -1.49505 6.51759
lowerneck 2.47826 -19.4513 -20.1406
upperneck -18.5911 -24.9051 32.3765
head 1.43996 -13.3971 11.676
rclavicle 2.18663e-014 -6.55989e-015
rhumerus -60.414 -30.1162 -13.791
rradius 28.236
rwrist 6.62896
rhand -34.2206 14.6917
rfingers 7.12502
rthumb -7.39249 -15.1592
lclavicle 2.18663e-014 -6.55989e-015
lhumerus -55.0289 11.0906 26.0041
lradius 23.6417
lwrist -36.5811
lhand -23.4071 48.2427
lfingers 7.12502
lthumb 3.04994 78.2006
rfemur -38.3318 -12.3678 10.2258
rtibia 47.5651
rfoot -13.1336 -11.8276
rtoes -29.6263
lfemur -17.5447 3.09219 -1.61195
ltibia 36.1664
lfoot -19.0713 6.30689
ltoes -27.3188
442
root 3.27869 16.847 -7.44805 9.29252 13.3636 -1.33747
lowerback 18.471 -1.61576 -5.67055
upperback 7.76245 -2.88496 2.52364
thorax -1.53008 -1.5753 6.46334
lowerneck 2.27901 -19.3174 -19.8515
upperneck -18.4589 -24.6999 31.6628
head 1.28403 -13.2478 11.4555
rclavicle -2.90226e-014 4.37326e-015
rhumerus -60.7149 -29.7876 -14.2098
rradius 27.9218
rwrist 8.0127
rhand -34.1516 15.523
rfingers 7.12502
rthumb -7.32594 -14.3301
lclavicle -2.90226e-014 4.37326e-015
lhumerus -55.3889 11.0213 26.5823
lradius 23.587
lwrist -36.3029
lhand -23.8924 48.4304
lfingers 7.12502
lthumb 2.58129 78.3946
rfemur -38.4654 -12.2392 10.2137
rtibia 47.5625
rfoot -13.1532 -11.7077
rtoes -30.4066
lfemur -17.622 2.9279 -1.58627
ltibia 36.3494
lfoot -18.9577 6.50459
ltoes -27.1105
443
root 3.25601 16.8457 -7.43736 9.31695 13.0441 -1.02657
lowerback 18.4257 -1.74064 -5.75563
upperback 7.80969 -3.05933 2.54017
thorax -1.42204 -1.67041 6.55708
lowerneck 1.78215 -19.2889 -19.9251
upperneck -18.2678 -24.6261 31.3044
head 1.3412 -13.1439 11.3076
rclavicle 2.46493e-014 -4.51241e-014
rhumerus -60.8803 -29.6373 -14.6314
rradius 27.651
rwrist 9.19519
rhand -33.9047 16.3198
rfingers 7.12502
rthumb -7.08758 -13.5416
lclavicle 2.46493e-014 -4.51241e-014
lhumerus -55.8502 11.1661 27.2115
lradius 23.6084
lwrist -36.0201
lhand -24.0532 48.2318
lfingers 7.12502
lthumb 2.42601 78.1978
rfemur -38.4936 -12.1005 9.91078
rtibia 47.5689
rfoot -13.321 -11.459
rtoes -30.7508
lfemur -17.5661 2.88196 -1.86878
ltibia 36.5054
lfoot -19.0013 6.41531
ltoes -26.3291
